HIERARCHY
ROOT Hips
{
  OFFSET 196.542 91.4413 189.699
  CHANNELS 6 Xposition Yposition Zposition Zrotation Xrotation Yrotation
  JOINT ToSpine
  {
    OFFSET -0.0105055 1.38907 -7.13956
    CHANNELS 3 Zrotation Xrotation Yrotation
    JOINT Spine
    {
      OFFSET 0.0105055 10 1
      CHANNELS 3 Zrotation Xrotation Yrotation
      JOINT Spine1
      {
        OFFSET 0 12 1.60637
        CHANNELS 3 Zrotation Xrotation Yrotation
        JOINT Neck
        {
          OFFSET 0 27 2.26658
          CHANNELS 3 Zrotation Xrotation Yrotation
          JOINT Head
          {
            OFFSET 0 9 2.12705
            CHANNELS 3 Zrotation Xrotation Yrotation
            End Site
            {
              OFFSET 0 11 2
            }
          }
        }
        JOINT LeftShoulder
        {
          OFFSET 8 19.6109 2.86452
          CHANNELS 3 Zrotation Xrotation Yrotation
          JOINT LeftArm
          {
            OFFSET 12 1 0.681055
            CHANNELS 3 Zrotation Xrotation Yrotation
            JOINT LeftForeArm
            {
              OFFSET 19 0 -1.52608
              CHANNELS 3 Zrotation Xrotation Yrotation
              JOINT LeftHand
              {
                OFFSET 23 0 0
                CHANNELS 3 Zrotation Xrotation Yrotation
                End Site
                {
                  OFFSET 10 0 0
                }
              }
            }
          }
        }
        JOINT RightShoulder
        {
          OFFSET -8 19.6109 2.86452
          CHANNELS 3 Zrotation Xrotation Yrotation
          JOINT RightArm
          {
            OFFSET -12 1 0.681055
            CHANNELS 3 Zrotation Xrotation Yrotation
            JOINT RightForeArm
            {
              OFFSET -19 0 -1.52608
              CHANNELS 3 Zrotation Xrotation Yrotation
              JOINT RightHand
              {
                OFFSET -23 0 0
                CHANNELS 3 Zrotation Xrotation Yrotation
                End Site
                {
                  OFFSET -10 0 0
                }
              }
            }
          }
        }
      }
    }
  }
  JOINT LeftUpLeg
  {
    OFFSET 9 -7.17245 0
    CHANNELS 3 Zrotation Xrotation Yrotation
    JOINT LeftLeg
    {
      OFFSET 0 -44.1113 0
      CHANNELS 3 Zrotation Xrotation Yrotation
      JOINT LeftFoot
      {
        OFFSET 0 -36.1829 0
        CHANNELS 3 Zrotation Xrotation Yrotation
        JOINT LeftToeBase
        {
          OFFSET 0 -4.84184 13
          CHANNELS 3 Zrotation Xrotation Yrotation
          End Site
          {
            OFFSET 0 1 6
          }
        }
      }
    }
  }
  JOINT RightUpLeg
  {
    OFFSET -9 -7.17245 0
    CHANNELS 3 Zrotation Xrotation Yrotation
    JOINT RightLeg
    {
      OFFSET 0 -44.0551 0
      CHANNELS 3 Zrotation Xrotation Yrotation
      JOINT RightFoot
      {
        OFFSET 0 -36.1469 0
        CHANNELS 3 Zrotation Xrotation Yrotation
        JOINT RightToeBase
        {
          OFFSET 0 -4.92256 13
          CHANNELS 3 Zrotation Xrotation Yrotation
          End Site
          {
            OFFSET 0 1 6
          }
        }
      }
    }
  }
}
MOTION
Frames:	14
Frame Time:	0.0333333
-82.5142 94.6767 -87.6212 0.854109 0.719478 13.8331 0 0 0 7.16585 6.6906 4.3528 -8.52892 1.66667 6.18723 4.34175 -11.5605 28.0737 -1.98327 -3.75231 28.1199 -30.6721 3.45423 -5.88422 -36.9655 17.1157 1.9172 -155.493 3.10844 -83.2166 -15.4263 0.302979 -2.23674 24.4803 5.86999 15.4555 37.3816 10.2793 -3.1051 -8.53297 1.32155 81.2611 6.24015 0.449244 8.22745 4.59439 -16.3199 13.5652 -9.61722e-007 42.3254 -26.9552 18.2169 -19.1039 3.09079 1.72307 -11.2514 -6.8032 -6.52988 3.95161 -22.362 -2.99758e-007 31.0647 -15.6921 -20.0354 -19.2597 -3.43351 4.74727 -18.811 -7.67597 
-82.8007 94.7251 -87.5114 1.08101 -0.83282 17.4587 0 0 0 6.83146 9.92944 3.91546 -7.5519 0.207439 5.63232 4.23603 -12.1515 29.5091 -2.06436 -2.31476 29.3822 -31.203 3.35594 -5.48967 -31.2679 18.4597 -7.07627 -156.909 2.28791 -84.6507 -15.729 0.345741 -2.50262 24.553 5.91979 15.5713 40.0161 10.4464 -5.13127 -7.01737 1.6041 77.1879 4.11713 0.307901 8.55021 5.37377 -15.0196 14.2332 1.30234e-006 42.3027 -31.2376 20.5202 -17.4895 3.18978 1.67846 -12.2 -6.40784 -6.36945 4.02558 -21.5263 2.53729e-007 35.2256 -15.2249 -20.4098 -20.5929 -3.74616 4.44353 -17.3843 -7.9289 
-82.8417 95.0834 -87.2533 1.06881 -0.482573 20.6896 0 0 0 6.88399 9.13557 3.74314 -6.94381 0.684801 5.32482 4.29821 -11.4846 30.8654 -2.20867 -1.30337 30.7579 -30.9774 3.52131 -5.98796 -28.8408 17.4604 -14.3895 -159.403 1.53067 -85.9344 -15.829 0.342265 -2.46162 24.0726 6.11254 16.4733 42.422 10.3703 -7.0462 -7.6629 2.57743 71.5188 4.19788 0.333297 9.07511 5.33974 -14.9466 14.1594 3.55268e-007 40.6171 -34.3949 20.0409 -16.2845 2.89629 1.74476 -11.743 -6.92703 -7.12725 2.56895 -23.2341 -2.15917e-007 38.2334 -13.31 -18.5861 -21.435 -3.5478 4.46687 -17.4889 -7.87023 
-82.9715 95.6033 -86.7161 1.25993 -0.656355 22.6166 0 0 0 6.91709 9.1488 3.64786 -7.06723 0.664872 5.19499 4.37083 -9.91146 32.414 -2.19857 -2.23759 32.4622 -29.9856 3.47827 -6.12639 -27.6765 16.0991 -20.1983 -161.428 1.20723 -86.412 -16.1245 0.315679 -2.22833 24.8606 6.1439 16.0972 43.0799 12.6187 -7.04129 -9.50679 4.80285 63.4362 3.55013 0.280681 9.0382 5.31625 -13.6236 14.0857 -2.82078e-007 38.4256 -36.5228 19.4221 -15.0073 2.58257 1.73871 -11.9109 -6.87311 -7.53067 2.37448 -23.8719 -8.18455e-007 38.5881 -11.6812 -20.1323 -20.624 -3.69989 4.65952 -18.3592 -7.53245 
-83.2765 96.21 -86.1703 0.627656 -0.498927 25.1942 0 0 0 6.59943 8.51471 3.25653 -5.41578 0.455003 4.44192 4.04978 -8.965 33.1563 -2.66808 -2.4568 33.3195 -29.9245 3.48038 -6.14827 -26.5423 14.3218 -25.0078 -161.127 0.993789 -87.0955 -16.1394 0.204703 -1.44372 24.845 6.21348 16.3245 44.1295 14.6766 -7.47388 -6.67924 4.88746 53.9627 4.99349 0.392693 8.98745 5.96202 -13.1631 13.55 9.10345e-007 35.976 -38.9558 18.6866 -13.3987 2.21435 1.70441 -12.4082 -6.58318 -7.01496 1.93663 -25.4408 -2.37283e-007 37.6207 -10.9695 -19.6553 -20.0851 -3.51426 4.52683 -17.6389 -7.03995 
-83.5907 96.8506 -85.4698 0.27433 -0.491996 27.3038 0 0 0 6.66447 7.53973 3.03077 -4.74733 1.15354 4.06005 3.82903 -8.94078 34.0491 -2.38672 -2.41733 34.0845 -28.8985 3.5213 -6.54131 -26.917 12.6759 -28.9184 -160.439 0.914478 -87.4281 -17.0989 0.125369 -0.833927 24.9347 6.12155 15.9835 45.5049 15.6566 -7.59674 -5.42224 5.53748 44.5278 5.10602 0.388504 8.69651 6.41749 -12.1045 13.1974 -1.09807e-006 33.081 -40.9697 18.1893 -11.769 1.89043 1.74475 -13.1403 -6.83746 -6.75989 2.26731 -27.4366 -3.58473e-007 35.3269 -10.0496 -19.5022 -18.7983 -3.25892 4.56516 -17.9834 -7.94853 
-83.9743 97.4398 -84.835 -0.0447759 -0.235253 28.8962 0 0 0 7.39968 7.18844 2.79349 -5.38018 0.977978 3.95883 4.19796 -9.84529 34.8898 -2.09683 -1.60717 34.7728 -27.9651 3.40957 -6.48295 -26.6996 11.6862 -32.8193 -160.398 0.883028 -87.522 -16.9301 0.334961 -2.25038 25.4281 6.07217 15.5451 46.8814 15.7055 -8.56554 -4.67672 6.41452 36.2129 4.72568 0.355716 8.60459 6.6289 -11.2551 12.7853 -0.0444508 30.0477 -42.2566 18.1098 -10.0851 1.6113 1.65408 -13.2581 -6.10654 -6.60787 2.301 -28.0616 6.67751e-008 32.6802 -10.6533 -17.0544 -18.848 -2.85118 4.19441 -15.9459 -5.68541 
-84.4076 97.792 -84.1029 -0.119086 -0.290835 30.2256 0 0 0 7.36607 6.89808 2.88461 -4.92276 1.17756 3.93055 3.77977 -10.4859 35.4881 -1.88694 -1.02394 35.1305 -27.2326 3.38744 -6.62909 -27.6035 10.3937 -36.4378 -159.49 0.808248 -87.8405 -17.286 0.329149 -2.16515 24.7021 5.84462 15.2478 48.7611 17.2115 -9.54213 -1.40087 2.65677 27.815 4.7571 0.380563 9.14253 6.98947 -10.1748 11.4549 -0.547041 27.6636 -42.3468 16.6179 -9.22044 1.34944 1.63913 -13.763 -5.91876 -6.4186 2.93035 -29.9315 -1.39207e-007 29.4724 -8.37478 -19.4102 -16.3391 -2.81292 4.46421 -17.9396 -10.3756 
-84.9238 97.9758 -83.4657 -0.063816 0.241015 31.3177 0 0 0 7.79161 6.75759 2.75986 -5.80669 0.625007 3.95694 3.62391 -10.2643 35.9166 -1.83117 -1.28645 35.5396 -26.6654 3.35633 -6.70365 -28.5465 9.20349 -38.8712 -158.319 0.577035 -88.5489 -18.0225 0.273449 -1.72417 24.5628 5.68456 14.8198 50.8154 18.5111 -11.2448 0.518015 -1.11185 22.0555 5.01744 0.344427 7.84895 7.2272 -9.87174 11.2303 -1.0988 25.9912 -43.2543 16.6243 -8.03313 1.17553 1.56715 -14.6381 -5.15095 -6.94649 2.68098 -30.2422 0.152433 27.4646 -8.71882 -19.4371 -15.5633 -2.68149 4.67305 -18.8325 -9.3693 
-85.6806 97.9866 -82.7813 0.09544 0.20093 32.2431 0 0 0 8.88309 7.75537 2.04483 -7.89709 -0.745676 3.6206 4.77992 -9.97301 36.531 -2.10883 -0.572405 36.3999 -25.8253 3.12059 -6.22897 -29.3089 8.06417 -40.2199 -157.114 0.40241 -89.0468 -18.3511 0.285965 -1.77025 25.3697 6.10754 15.6876 52.128 18.0785 -13.4553 2.80157 -5.19723 17.638 4.76677 0.371698 8.91235 7.91406 -9.25096 10.9173 -1.58372 24.8535 -43.6213 15.7666 -8.05214 1.11674 1.66664 -14.3918 -6.06368 -6.93529 2.92934 -28.7016 0.623537 25.9005 -10.1236 -17.913 -15.8034 -2.50624 4.6692 -18.4876 -7.92829 
-86.4668 97.9527 -82.0562 0.396327 0.752819 33.2447 0 0 0 6.74141 5.60119 3.0782 -5.20563 1.98901 4.05698 2.9606 -10.7149 35.9396 -1.51723 -0.964358 35.3155 -27.1449 3.44689 -6.8323 -29.7343 7.31563 -44.5109 -155.31 -1.04962 -92.2817 -18.2736 0.268621 -1.67008 22.7389 5.03898 13.7227 53.7186 16.1982 -13.3467 3.62172 -4.91466 14.0671 5.12077 0.354506 7.9152 7.88077 -9.11969 9.6179 -1.95763 23.62 -42.9131 15.9879 -7.83711 1.10227 1.65083 -15.1801 -5.80215 -7.42775 2.62533 -27.88 0.844822 25.0605 -10.2856 -17.4051 -15.1697 -2.33532 4.66353 -18.4586 -7.92183 
-87.4833 97.7672 -81.3002 0.80762 1.24228 33.9581 0 0 0 6.24039 5.37672 2.79251 -5.9012 2.06189 3.84418 3.71048 -10.4257 34.5675 -1.41712 -0.658852 34.1307 -27.1436 3.4454 -6.82822 -30.1553 6.52528 -45.9671 -154.74 -2.43879 -95.1532 -18.3676 0.257716 -1.59394 22.977 5.12444 13.8779 54.6209 14.89 -14.6961 4.13616 -5.45231 12.283 4.4572 0.269804 6.92454 8.08008 -9.04104 9.10592 -2.32183 22.6922 -43.4289 15.8781 -7.19913 1.00526 1.5922 -16.4508 -4.95723 -7.68421 2.37787 -27.3421 0.931288 24.3866 -10.6216 -18.5568 -13.9568 -2.29114 4.89889 -19.657 -8.12733 
-88.6085 97.6189 -80.442 1.46557 1.85068 34.4025 0 0 0 5.29233 4.87875 2.56599 -6.42004 2.33363 3.67038 4.46322 -9.28689 31.1882 -1.19894 -0.684447 31.1149 -27.7267 3.5308 -6.90687 -29.689 5.60608 -47.1419 -154.233 -4.73843 -99.7113 -17.783 0.171424 -1.09572 23.1758 5.12515 13.7707 55.6169 14.0734 -15.6562 4.46915 -5.9987 10.869 4.20079 0.245161 6.6771 7.98712 -8.59053 8.39131 -2.23188 21.405 -43.4611 13.5717 -7.86099 0.936844 1.53349 -15.3859 -4.6663 -8.14785 2.34819 -26.9284 0.925907 24.1344 -9.9251 -15.3963 -14.5672 -1.97956 4.44256 -17.2202 -6.89059 
-89.8346 97.4036 -79.3974 2.04148 2.32526 34.3328 0 0 0 4.00254 4.41306 2.40366 -6.34465 2.51211 3.46534 5.89824 -8.28521 25.7811 -0.976123 0.277432 26.2495 -28.4332 3.57238 -6.81993 -28.8546 5.31305 -47.6635 -155.836 -7.11513 -105.433 -17.926 0.187361 -1.18788 22.7238 5.06403 13.8155 56.8429 12.3094 -16.3351 4.38336 -6.00134 9.81693 5.2375 0.305956 6.68181 8.17584 -7.7678 8.26492 -2.21191 19.7842 -43.203 12.9887 -7.8251 0.892145 1.52839 -16.2512 -4.36458 -8.08823 2.28658 -26.2981 1.21985 23.4804 -10.7727 -14.4857 -13.7745 -1.75893 4.44876 -17.3209 -7.36547 
